<?xml version="1.0" encoding="UTF-8" standalone="no"?>
<!-- Created with Inkscape (http://www.inkscape.org/) -->

<svg
   xmlns:dc="http://purl.org/dc/elements/1.1/"
   xmlns:cc="http://creativecommons.org/ns#"
   xmlns:rdf="http://www.w3.org/1999/02/22-rdf-syntax-ns#"
   xmlns:svg="http://www.w3.org/2000/svg"
   xmlns="http://www.w3.org/2000/svg"
   xmlns:sodipodi="http://sodipodi.sourceforge.net/DTD/sodipodi-0.dtd"
   xmlns:inkscape="http://www.inkscape.org/namespaces/inkscape"
   version="1.1"
   id="svg3809"
   xml:space="preserve"
   width="720"
   height="342.66666"
   viewBox="0 0 720 342.66666"
   sodipodi:docname="D1.svg"
   inkscape:version="0.92.4 (5da689c313, 2019-01-14)"
   inkscape:export-filename="C:\Users\34601\Documents\brinton\pkgdown\favicon\D1.png"
   inkscape:export-xdpi="96"
   inkscape:export-ydpi="96"><metadata
     id="metadata3815"><rdf:RDF><cc:Work
         rdf:about=""><dc:format>image/svg+xml</dc:format><dc:type
           rdf:resource="http://purl.org/dc/dcmitype/StillImage" /><dc:title /></cc:Work></rdf:RDF></metadata><defs
     id="defs3813" /><sodipodi:namedview
     pagecolor="#ffffff"
     bordercolor="#666666"
     borderopacity="1"
     objecttolerance="10"
     gridtolerance="10"
     guidetolerance="10"
     inkscape:pageopacity="0"
     inkscape:pageshadow="2"
     inkscape:window-width="1597"
     inkscape:window-height="895"
     id="namedview3811"
     showgrid="false"
     inkscape:zoom="2.1111111"
     inkscape:cx="254.62734"
     inkscape:cy="189.64727"
     inkscape:window-x="39"
     inkscape:window-y="0"
     inkscape:window-maximized="0"
     inkscape:current-layer="g3817" /><g
     inkscape:groupmode="layer"
     id="layer2"
     inkscape:label="capa3"
     style="display:inline" /><g
     inkscape:groupmode="layer"
     id="layer1"
     inkscape:label="Capa2"
     style="display:inline" /><g
     id="g3817"
     inkscape:groupmode="layer"
     inkscape:label="ink_ext_XXXXXX"
     transform="matrix(1.3333333,0,0,-1.3333333,0,342.66667)"
     style="display:inline"><rect
       style="fill:#cdc0a9;fill-opacity:1;stroke:#ff0000;stroke-width:0.75"
       id="rect5280"
       width="186.08858"
       height="186.07698"
       x="127.56383"
       y="-216.38864"
       transform="scale(1,-1)" /><g
       id="g3819"
       transform="scale(0.1)"><g
         id="g3821"
         transform="scale(1.00003,0.999966)" /><g
         id="g3825"
         transform="scale(1.00003,0.999966)" /><g
         id="g3829"
         transform="scale(1.00003,0.999966)" /><g
         id="g3833"
         transform="scale(1.00003,0.999966)" /><g
         id="g3837"
         transform="scale(1.00003,0.999966)" /><g
         id="g3841"
         transform="scale(1.00003,0.999966)" /><g
         id="g3845"
         transform="scale(1.00003,0.999966)" /><g
         id="g3849"
         transform="scale(1.00003,0.999966)"
         style="fill:#ff0000"><path
           d="m 1387.56,1678.16 1.67,0.37 1.31,0.19 2.6,0.18 2.42,-0.37 2.6,-0.74 2.61,-1.12 1.86,-1.3 1.86,-1.68 1.68,-2.04 1.3,-1.86 0.93,-1.87 1.3,-2.6 0.74,-2.42 1.12,-3.35 0.56,-2.6 0.37,-2.8 0.56,-3.53 0.19,-3.54 v -3.16 -2.98 l -0.19,-3.35 -0.18,-3.53 -0.38,-2.79 -0.37,-3.17 -0.37,-2.97 -0.56,-2.79 -0.56,-2.43 -0.56,-2.79 -0.93,-2.97 -12.28,4.83 0.93,3.17 0.37,2.05 0.56,2.23 0.56,2.98 0.37,2.04 0.38,3.16 0.37,2.61 0.37,3.16 0.19,2.61 v 3.53 l -0.19,3.54 -0.37,3.16 -0.37,2.98 -0.94,3.16 -1.67,3.17 -2.42,2.42 -2.42,0.93 h -2.23 l -1.86,-0.37 z"
           style="fill:#aa0000;stroke:#aa0000;stroke-width:7.50001478;stroke-linecap:butt;stroke-linejoin:miter;stroke-miterlimit:10;stroke-dasharray:none;stroke-opacity:1;fill-opacity:1"
           id="path3851"
           inkscape:connector-curvature="0" /></g><g
         id="g3853"
         transform="scale(1.00003,0.999966)" /><g
         id="g3857"
         transform="scale(1.00003,0.999966)"><path
           d="M 1275.6,2163.96 H 3136.43 V 303.127 H 1275.6 Z"
           style="fill:none;stroke:#000000;stroke-width:7.50001478;stroke-linecap:butt;stroke-linejoin:miter;stroke-miterlimit:10;stroke-dasharray:none;stroke-opacity:1"
           id="path3859"
           inkscape:connector-curvature="0" /></g><g
         id="g3861"
         transform="scale(1.00003,0.999966)"
         style="fill:#ff0000"><path
           d="m 1342.99,1562.45 0.93,-1.49 0.93,-0.93 1.86,-1.86 2.05,-1.48 2.23,-1.12 2.79,-0.75 2.23,-0.37 h 2.61 l 2.6,0.37 2.23,0.56 1.87,0.56 2.6,1.3 2.42,1.12 2.79,1.86 2.42,1.49 2.05,1.67 2.79,2.42 2.61,2.42 2.04,2.24 2.05,2.41 2.05,2.61 2.23,2.79 1.67,2.23 1.68,2.61 1.67,2.42 1.49,2.41 1.3,2.24 1.31,2.42 1.49,2.79 -12.28,4.84 -1.68,-3.16 -0.93,-1.87 -1.3,-1.86 -1.49,-2.6 -1.12,-1.86 -1.68,-2.42 -1.48,-2.23 -1.86,-2.61 -1.68,-2.05 -2.23,-2.6 -2.6,-2.61 -2.43,-2.23 -2.41,-1.67 -2.8,-1.68 -3.16,-1.31 -3.35,-0.18 -2.6,0.93 -1.68,1.49 -0.93,1.49 z"
           style="fill:#aa0000;stroke:#aa0000;stroke-width:7.50001478;stroke-linecap:butt;stroke-linejoin:miter;stroke-miterlimit:10;stroke-dasharray:none;stroke-opacity:1;fill-opacity:1"
           id="path3863"
           inkscape:connector-curvature="0" /></g><g
         id="g3865"
         transform="scale(1.00003,0.999966)"><path
           d="m 1434.44,1660.1 1.68,0.37 1.3,0.19 2.61,0.18 2.41,-0.37 2.61,-0.74 2.6,-1.12 1.86,-1.3 1.87,-1.68 1.67,-2.04 1.3,-1.87 0.93,-1.86 1.31,-2.6 0.74,-2.42 1.12,-3.35 0.56,-2.61 0.37,-2.79 0.56,-3.53 0.18,-3.54 v -3.16 -2.98 l -0.18,-3.35 -0.19,-3.53 -0.37,-2.79 -0.37,-3.17 -0.38,-2.97 -0.55,-2.8 -0.56,-2.42 -0.56,-2.79 -0.93,-2.97 -12.28,4.84 0.93,3.16 0.37,2.05 0.56,2.23 0.56,2.97 0.37,2.05 0.37,3.16 0.37,2.61 0.37,3.16 0.19,2.61 v 3.54 l -0.19,3.53 -0.37,3.16 -0.37,2.98 -0.93,3.17 -1.68,3.16 -2.42,2.42 -2.41,0.93 h -2.24 l -1.86,-0.37 z"
           style="fill:#aa0000;stroke:#aa0000;stroke-width:7.50001478;stroke-linecap:butt;stroke-linejoin:miter;stroke-miterlimit:10;stroke-dasharray:none;stroke-opacity:1;fill-opacity:1"
           id="path3867"
           inkscape:connector-curvature="0" /></g><g
         id="g3869"
         transform="scale(1.00003,0.999966)"
         style="fill:#ff0000"><path
           d="m 1389.87,1544.39 0.93,-1.49 0.93,-0.93 1.86,-1.86 2.05,-1.49 2.23,-1.11 2.79,-0.75 2.24,-0.37 h 2.6 l 2.61,0.37 2.23,0.56 1.86,0.56 2.61,1.3 2.42,1.12 2.78,1.86 2.43,1.49 2.04,1.67 2.79,2.42 2.61,2.42 2.04,2.23 2.05,2.42 2.05,2.61 2.23,2.79 1.68,2.23 1.67,2.61 1.68,2.42 1.48,2.42 1.31,2.23 1.3,2.42 1.49,2.79 -12.28,4.84 -1.68,-3.17 -0.93,-1.86 -1.3,-1.86 -1.49,-2.6 -1.11,-1.87 -1.68,-2.41 -1.49,-2.24 -1.86,-2.6 -1.67,-2.05 -2.24,-2.6 -2.6,-2.61 -2.42,-2.23 -2.42,-1.68 -2.79,-1.67 -3.17,-1.3 -3.34,-0.19 -2.61,0.93 -1.67,1.49 -0.93,1.49 z"
           style="fill:#aa0000;stroke:#aa0000;stroke-width:7.50001478;stroke-linecap:butt;stroke-linejoin:miter;stroke-miterlimit:10;stroke-dasharray:none;stroke-opacity:1;fill-opacity:1"
           id="path3871"
           inkscape:connector-curvature="0" /></g><g
         id="g3873"
         transform="scale(1.00003,0.999966)"
         style="fill:#ff0000"><path
           d="m 1481.33,1642.04 1.67,0.37 1.31,0.19 2.6,0.18 2.42,-0.37 2.6,-0.75 2.61,-1.11 1.86,-1.3 1.86,-1.68 1.67,-2.05 1.31,-1.86 0.93,-1.85 1.3,-2.61 0.74,-2.42 1.12,-3.35 0.56,-2.61 0.37,-2.78 0.56,-3.54 0.19,-3.54 v -3.16 -2.98 l -0.19,-3.35 -0.19,-3.53 -0.37,-2.8 -0.37,-3.16 -0.37,-2.97 -0.56,-2.8 -0.56,-2.41 -0.56,-2.8 -0.93,-2.97 -12.28,4.84 0.93,3.16 0.37,2.04 0.56,2.24 0.56,2.97 0.37,2.05 0.37,3.17 0.37,2.6 0.38,3.17 0.18,2.6 v 3.54 l -0.18,3.53 -0.38,3.17 -0.37,2.97 -0.93,3.16 -1.67,3.17 -2.42,2.42 -2.42,0.93 h -2.23 l -1.86,-0.38 z"
           style="fill:#aa0000;stroke:#aa0000;stroke-width:7.50001478;stroke-linecap:butt;stroke-linejoin:miter;stroke-miterlimit:10;stroke-dasharray:none;stroke-opacity:1;fill-opacity:1"
           id="path3875"
           inkscape:connector-curvature="0" /></g><g
         id="g3877"
         transform="scale(1.00003,0.999966)"
         style="fill:#ff0000"><path
           d="m 1436.76,1526.33 0.93,-1.49 0.93,-0.93 1.85,-1.86 2.06,-1.49 2.23,-1.11 2.79,-0.75 2.23,-0.37 h 2.6 l 2.61,0.37 2.23,0.56 1.86,0.56 2.61,1.3 2.42,1.12 2.79,1.86 2.42,1.49 2.05,1.67 2.79,2.42 2.6,2.42 2.05,2.23 2.05,2.42 2.04,2.61 2.24,2.79 1.67,2.23 1.67,2.61 1.68,2.42 1.49,2.42 1.3,2.23 1.3,2.42 1.49,2.79 -12.28,4.84 -1.67,-3.17 -0.93,-1.86 -1.3,-1.86 -1.49,-2.6 -1.12,-1.86 -1.68,-2.42 -1.48,-2.24 -1.87,-2.6 -1.67,-2.05 -2.23,-2.6 -2.61,-2.61 -2.42,-2.23 -2.42,-1.68 -2.79,-1.67 -3.16,-1.3 -3.35,-0.19 -2.6,0.93 -1.68,1.49 -0.93,1.49 z"
           style="fill:#aa0000;stroke:#aa0000;stroke-width:7.50001478;stroke-linecap:butt;stroke-linejoin:miter;stroke-miterlimit:10;stroke-dasharray:none;stroke-opacity:1;fill-opacity:1"
           id="path3879"
           inkscape:connector-curvature="0" /></g><g
         id="g3881"
         transform="scale(1.00003,0.999966)"
         style="fill:#ff0000"><path
           d="m 1528.21,1623.98 1.68,0.37 1.3,0.19 2.6,0.18 2.42,-0.37 2.61,-0.74 2.6,-1.12 1.86,-1.3 1.86,-1.68 1.68,-2.05 1.3,-1.85 0.93,-1.87 1.3,-2.6 0.75,-2.42 1.12,-3.35 0.55,-2.6 0.38,-2.8 0.56,-3.53 0.18,-3.54 v -3.16 -2.98 l -0.18,-3.35 -0.19,-3.53 -0.37,-2.8 -0.38,-3.16 -0.37,-2.98 -0.56,-2.79 -0.56,-2.42 -0.55,-2.79 -0.93,-2.97 -12.29,4.83 0.93,3.17 0.38,2.04 0.55,2.24 0.56,2.98 0.38,2.04 0.37,3.17 0.37,2.6 0.37,3.16 0.19,2.61 v 3.53 l -0.19,3.54 -0.37,3.16 -0.37,2.98 -0.93,3.16 -1.68,3.17 -2.41,2.42 -2.43,0.93 H 1531 l -1.86,-0.38 z"
           style="fill:#aa0000;stroke:#aa0000;stroke-width:7.50001478;stroke-linecap:butt;stroke-linejoin:miter;stroke-miterlimit:10;stroke-dasharray:none;stroke-opacity:1;fill-opacity:1"
           id="path3883"
           inkscape:connector-curvature="0" /></g><g
         id="g3885"
         transform="scale(1.00003,0.999966)"
         style="fill:#ff0000"><path
           d="m 1483.64,1508.27 0.93,-1.49 0.93,-0.93 1.86,-1.86 2.05,-1.49 2.23,-1.11 2.79,-0.75 2.23,-0.37 h 2.61 l 2.61,0.37 2.23,0.56 1.86,0.56 2.6,1.3 2.42,1.12 2.79,1.86 2.42,1.49 2.05,1.67 2.79,2.42 2.61,2.42 2.04,2.23 2.05,2.42 2.05,2.61 2.23,2.79 1.67,2.23 1.68,2.61 1.68,2.41 1.48,2.43 1.3,2.23 1.31,2.42 1.49,2.79 -12.28,4.83 -1.68,-3.16 -0.93,-1.86 -1.3,-1.86 -1.49,-2.6 -1.12,-1.86 -1.67,-2.43 -1.49,-2.23 -1.86,-2.6 -1.68,-2.05 -2.23,-2.6 -2.6,-2.61 -2.42,-2.23 -2.42,-1.68 -2.79,-1.67 -3.17,-1.3 -3.35,-0.19 -2.6,0.93 -1.67,1.49 -0.94,1.49 z"
           style="fill:#aa0000;stroke:#aa0000;stroke-width:7.50001478;stroke-linecap:butt;stroke-linejoin:miter;stroke-miterlimit:10;stroke-dasharray:none;stroke-opacity:1;fill-opacity:1"
           id="path3887"
           inkscape:connector-curvature="0" /></g><g
         id="g3889"
         transform="scale(1.00003,0.999966)"><path
           d="m 1575.1,1605.92 1.67,0.37 1.3,0.19 2.61,0.18 2.42,-0.37 2.6,-0.74 2.61,-1.12 1.86,-1.3 1.86,-1.68 1.67,-2.04 1.3,-1.86 0.93,-1.87 1.31,-2.6 0.74,-2.42 1.12,-3.35 0.56,-2.6 0.37,-2.8 0.56,-3.53 0.18,-3.54 v -3.16 -2.98 l -0.18,-3.35 -0.19,-3.53 -0.37,-2.79 -0.37,-3.17 -0.37,-2.98 -0.56,-2.79 -0.56,-2.42 -0.56,-2.79 -0.93,-2.98 -12.28,4.84 0.93,3.17 0.37,2.04 0.56,2.24 0.56,2.98 0.37,2.04 0.37,3.16 0.37,2.61 0.38,3.16 0.18,2.61 v 3.53 l -0.18,3.54 -0.38,3.16 -0.37,2.98 -0.93,3.16 -1.67,3.17 -2.42,2.42 -2.42,0.93 h -2.24 l -1.86,-0.38 z"
           style="fill:#aa0000;stroke:#aa0000;stroke-width:7.50001478;stroke-linecap:butt;stroke-linejoin:miter;stroke-miterlimit:10;stroke-dasharray:none;stroke-opacity:1;fill-opacity:1"
           id="path3891"
           inkscape:connector-curvature="0" /></g><g
         id="g3893"
         transform="scale(1.00003,0.999966)"
         style="fill:#ff0000"><path
           d="m 1530.52,1490.21 0.93,-1.49 0.94,-0.93 1.86,-1.86 2.04,-1.49 2.24,-1.11 2.79,-0.75 2.23,-0.37 h 2.6 l 2.61,0.37 2.23,0.56 1.86,0.56 2.61,1.3 2.42,1.12 2.79,1.86 2.42,1.49 2.04,1.67 2.8,2.42 2.6,2.42 2.05,2.23 2.05,2.42 2.04,2.61 2.23,2.79 1.68,2.23 1.68,2.61 1.67,2.42 1.49,2.41 1.3,2.24 1.3,2.42 1.49,2.79 -12.28,4.84 -1.67,-3.17 -0.93,-1.86 -1.31,-1.86 -1.49,-2.6 -1.11,-1.87 -1.68,-2.41 -1.49,-2.24 -1.86,-2.6 -1.67,-2.05 -2.24,-2.6 -2.6,-2.61 -2.42,-2.23 -2.42,-1.68 -2.79,-1.67 -3.16,-1.31 -3.35,-0.18 -2.61,0.93 -1.67,1.49 -0.93,1.49 z"
           style="fill:#aa0000;stroke:#aa0000;stroke-width:7.50001478;stroke-linecap:butt;stroke-linejoin:miter;stroke-miterlimit:10;stroke-dasharray:none;stroke-opacity:1;fill-opacity:1"
           id="path3895"
           inkscape:connector-curvature="0" /></g><g
         id="g3897"
         transform="scale(1.00003,0.999966)"><path
           d="m 1621.98,1587.86 1.67,0.37 1.31,0.19 2.6,0.18 2.42,-0.37 2.61,-0.74 2.6,-1.12 1.86,-1.3 1.86,-1.68 1.68,-2.04 1.3,-1.87 0.93,-1.86 1.3,-2.6 0.75,-2.42 1.11,-3.35 0.56,-2.61 0.37,-2.79 0.56,-3.53 0.19,-3.54 v -3.16 -2.98 l -0.19,-3.35 -0.19,-3.53 -0.37,-2.79 -0.37,-3.17 -0.37,-2.97 -0.56,-2.8 -0.56,-2.42 -0.55,-2.79 -0.93,-2.98 -12.29,4.84 0.93,3.17 0.38,2.05 0.55,2.23 0.56,2.97 0.37,2.05 0.37,3.16 0.38,2.61 0.37,3.16 0.19,2.61 v 3.53 l -0.19,3.54 -0.37,3.16 -0.38,2.98 -0.92,3.16 -1.68,3.17 -2.42,2.42 -2.42,0.93 h -2.23 l -1.86,-0.37 z"
           style="fill:#aa0000;stroke:#aa0000;stroke-width:7.50001478;stroke-linecap:butt;stroke-linejoin:miter;stroke-miterlimit:10;stroke-dasharray:none;stroke-opacity:1;fill-opacity:1"
           id="path3899"
           inkscape:connector-curvature="0" /></g><g
         id="g3901"
         transform="scale(1.00003,0.999966)"
         style="fill:#ff0000"><path
           d="m 1577.41,1472.15 0.93,-1.49 0.93,-0.93 1.86,-1.86 2.05,-1.49 2.23,-1.12 2.79,-0.74 2.23,-0.37 h 2.61 l 2.61,0.37 2.23,0.56 1.86,0.56 2.6,1.3 2.42,1.12 2.79,1.86 2.42,1.49 2.05,1.67 2.79,2.42 2.6,2.42 2.05,2.23 2.05,2.42 2.04,2.61 2.24,2.79 1.67,2.23 1.68,2.6 1.67,2.43 1.49,2.41 1.31,2.24 1.3,2.42 1.48,2.79 -12.28,4.84 -1.67,-3.17 -0.93,-1.86 -1.3,-1.86 -1.49,-2.6 -1.12,-1.87 -1.67,-2.41 -1.49,-2.24 -1.86,-2.6 -1.68,-2.05 -2.23,-2.61 -2.61,-2.6 -2.41,-2.23 -2.42,-1.68 -2.8,-1.67 -3.16,-1.31 -3.35,-0.18 -2.6,0.93 -1.68,1.49 -0.93,1.49 z"
           style="fill:#aa0000;stroke:#aa0000;stroke-width:7.50001478;stroke-linecap:butt;stroke-linejoin:miter;stroke-miterlimit:10;stroke-dasharray:none;stroke-opacity:1;fill-opacity:1"
           id="path3903"
           inkscape:connector-curvature="0" /></g></g></g><g
     inkscape:groupmode="layer"
     id="layer10"
     inkscape:label="rodona7"
     style="display:inline"><path
       transform="matrix(0.13333733,0,0,-0.1333288,0,342.66667)"
       d="m 1731.41,1468.77 c -27.81,-75.64 -42.04,-155.61 -42.04,-236.2 0,-378.096 306.5,-684.602 684.6,-684.602 378.09,0 684.59,306.506 684.59,684.602 0,378.09 -306.5,684.6 -684.59,684.6 -279.74,0 -531.35,-170.2 -635.44,-429.86"
       style="display:inline;fill:#aa0000;fill-opacity:1;stroke:#aa0000;stroke-width:7.50001478;stroke-linecap:butt;stroke-linejoin:miter;stroke-miterlimit:10;stroke-dasharray:none;stroke-opacity:1"
       id="path3847"
       inkscape:connector-curvature="0" /></g><g
     inkscape:groupmode="layer"
     id="layer9"
     inkscape:label="rodona6"
     style="display:inline"><path
       transform="matrix(0.13333733,0,0,-0.1333288,0,342.66667)"
       d="m 1766.15,1455.42 c -26.17,-71.38 -39.57,-146.82 -39.57,-222.85 0,-357.54 289.85,-647.386 647.39,-647.386 357.53,0 647.38,289.846 647.38,647.386 0,357.53 -289.85,647.38 -647.38,647.38 -264.35,0 -502.15,-160.73 -600.71,-406.02"
       style="display:inline;fill:#cdc0a9;fill-opacity:1;stroke:#aa0000;stroke-width:7.50001478;stroke-linecap:butt;stroke-linejoin:miter;stroke-miterlimit:10;stroke-dasharray:none;stroke-opacity:1"
       id="path3839"
       inkscape:connector-curvature="0" /></g><g
     inkscape:groupmode="layer"
     id="layer8"
     inkscape:label="rodona5"
     style="display:inline"><path
       transform="matrix(0.13333733,0,0,-0.1333288,0,342.66667)"
       d="m 1912.94,1398.98 c -19.26,-53.36 -29.12,-109.67 -29.12,-166.41 0,-270.702 219.45,-490.146 490.15,-490.146 270.69,0 490.14,219.444 490.14,490.146 0,270.69 -219.45,490.14 -490.14,490.14 -199.32,0 -378.79,-120.7 -453.96,-305.3"
       style="display:inline;fill:#aa0000;stroke:#aa0000;stroke-width:7.50001478;stroke-linecap:butt;stroke-linejoin:miter;stroke-miterlimit:10;stroke-dasharray:none;stroke-opacity:1;fill-opacity:1"
       id="path3843"
       inkscape:connector-curvature="0" /></g><g
     inkscape:groupmode="layer"
     id="layer7"
     inkscape:label="rodona4"
     style="display:inline"><path
       transform="matrix(0.13333733,0,0,-0.1333288,0,342.66667)"
       d="m 1947.69,1385.63 c -17.63,-49.1 -26.65,-100.89 -26.65,-153.06 0,-250.146 202.78,-452.93 452.93,-452.93 250.14,0 452.92,202.784 452.92,452.93 0,250.14 -202.78,452.92 -452.92,452.92 -183.93,0 -349.6,-111.23 -419.22,-281.47"
       style="display:inline;fill:#cdc0a9;fill-opacity:1;stroke:#aa0000;stroke-width:7.50001478;stroke-linecap:butt;stroke-linejoin:miter;stroke-miterlimit:10;stroke-dasharray:none;stroke-opacity:1"
       id="path3835"
       inkscape:connector-curvature="0" /></g><g
     inkscape:groupmode="layer"
     id="layer6"
     inkscape:label="rodona3"
     style="display:inline"><path
       transform="matrix(0.13333733,0,0,-0.1333288,0,342.66667)"
       d="m 2093.64,1329.53 c -10.78,-31.19 -16.29,-63.96 -16.29,-96.96 0,-163.82 132.8,-296.62 296.62,-296.62 163.81,0 296.61,132.8 296.61,296.62 0,163.81 -132.8,296.61 -296.61,296.61 -119.28,0 -226.97,-71.45 -273.31,-181.36"
       style="display:inline;fill:#aa0000;stroke:#aa0000;stroke-width:7.50001478;stroke-linecap:butt;stroke-linejoin:miter;stroke-miterlimit:10;stroke-dasharray:none;stroke-opacity:1;fill-opacity:1"
       id="path3831"
       inkscape:connector-curvature="0" /></g><g
     inkscape:groupmode="layer"
     id="layer5"
     inkscape:label="rodona2"
     style="display:inline"><path
       transform="matrix(0.13333733,0,0,-0.1333288,0,342.66667)"
       d="m 2128.4,1316.16 c -9.16,-26.91 -13.83,-55.16 -13.83,-83.59 0,-143.26 116.14,-259.404 259.4,-259.404 143.26,0 259.39,116.144 259.39,259.404 0,143.25 -116.13,259.39 -259.39,259.39 -103.89,0 -197.77,-61.99 -238.57,-157.53"
       style="display:inline;fill:#cdc0a9;fill-opacity:1;stroke:#aa0000;stroke-width:7.50001478;stroke-linecap:butt;stroke-linejoin:miter;stroke-miterlimit:10;stroke-dasharray:none;stroke-opacity:1"
       id="path3827"
       inkscape:connector-curvature="0" /></g><g
     inkscape:groupmode="layer"
     id="layer4"
     inkscape:label="rodona1"
     style="display:inline"><path
       transform="matrix(0.13333733,0,0,-0.1333288,0,342.66667)"
       d="m 2265.97,1209.89 c 10.73,-51.09 55.79,-87.67 108,-87.67 60.94,0 110.34,49.41 110.34,110.35 0,60.93 -49.4,110.34 -110.34,110.34 -23.31,0 -46.03,-7.38 -64.88,-21.08"
       style="display:inline;fill:#aa0000;stroke:#aa0000;stroke-width:7.50001478;stroke-linecap:butt;stroke-linejoin:miter;stroke-miterlimit:10;stroke-dasharray:none;stroke-opacity:1;fill-opacity:1"
       id="path3823"
       inkscape:connector-curvature="0" /></g><g
     inkscape:groupmode="layer"
     id="layer3"
     inkscape:label="fletxa"
     style="display:inline"><path
       transform="matrix(1.3333333,0,0,-1.3333333,0,342.66667)"
       d="m 137.30812,160.65554 c -0.38801,0.14799 -0.64502,0.52198 -0.64502,0.93797 0,0.55498 0.45001,1.00496 1.00503,1.00496 0.123,0 0.24601,-0.024 0.36101,-0.068 l 0.011,-0.007 89.21068,-34.36783 1.08003,7.21976 10.12331,-12.52358 -15.83648,-2.49291 3.96312,5.97279 -89.26568,34.31284"
       style="display:inline;fill:#000000;stroke:#000000;stroke-width:0.75;stroke-linecap:butt;stroke-linejoin:miter;stroke-miterlimit:10;stroke-dasharray:none;stroke-opacity:1"
       id="path3855-4"
       inkscape:connector-curvature="0" /></g></svg>